<?xml version="1.0" encoding="utf-8"?>
<!-- Generator: Adobe Illustrator 19.2.0, SVG Export Plug-In . SVG Version: 6.00 Build 0)  -->
<svg version="1.1" id="Layer_1" xmlns:sketch="http://www.bohemiancoding.com/sketch/ns"
	 xmlns="http://www.w3.org/2000/svg" xmlns:xlink="http://www.w3.org/1999/xlink" x="0px" y="0px" viewBox="0 0 43.6 43.5"
	 style="enable-background:new 0 0 43.6 43.5;" xml:space="preserve">
<style type="text/css">
	.st0{fill:none;stroke:#000000;stroke-width:2;stroke-linecap:round;}
</style>
<title>Clear Day</title>
<desc>Created with Sketch.</desc>
<g sketch:type="MSPage">
	<g transform="translate(-3.000000, -3.000000)" sketch:type="MSArtboardGroup">
		<g transform="translate(4.000000, 4.000000)" sketch:type="MSLayerGroup">
			<path sketch:type="MSShapeGroup" d="M20.9,34c7.2,0,13-5.8,13-13S28,8,20.9,8s-13,5.8-13,13S13.7,34,20.9,34L20.9,34z M20.9,31
				c-5.5,0-10-4.5-10-10s4.5-10,10-10s10,4.5,10,10S26.4,31,20.9,31L20.9,31z"/>
			<path sketch:type="MSShapeGroup" class="st0" d="M20.4,0v6"/>
			<path sketch:type="MSShapeGroup" class="st0" d="M35.6,20.5h6"/>
			<path sketch:type="MSShapeGroup" class="st0" d="M31.8,31.7l4.2,4.2"/>
			<path sketch:type="MSShapeGroup" class="st0" d="M10,31.7l-4.2,4.2"/>
			<path sketch:type="MSShapeGroup" class="st0" d="M10,9.9L5.8,5.7"/>
			<path sketch:type="MSShapeGroup" class="st0" d="M30.8,9.9L35,5.7"/>
			<path sketch:type="MSShapeGroup" class="st0" d="M20.9,35.5v6"/>
			<path sketch:type="MSShapeGroup" class="st0" d="M0.1,20.5h6"/>
		</g>
	</g>
</g>
</svg>
