<?xml version="1.0" encoding="utf-8"?>
<!-- Generator: Adobe Illustrator 19.2.0, SVG Export Plug-In . SVG Version: 6.00 Build 0)  -->
<svg version="1.1" id="Layer_1" xmlns:sketch="http://www.bohemiancoding.com/sketch/ns"
	 xmlns="http://www.w3.org/2000/svg" xmlns:xlink="http://www.w3.org/1999/xlink" x="0px" y="0px" viewBox="0 0 95.8 74.7"
	 style="enable-background:new 0 0 95.8 74.7;" xml:space="preserve">
<style type="text/css">
	.st0{fill:none;stroke:#000000;stroke-width:4.7134;}
	.st1{fill:none;stroke:#000000;stroke-width:5.2371;}
</style>
<title>Partly Cloudy Day</title>
<desc>Created with Sketch.</desc>
<g sketch:type="MSPage">
	<g transform="translate(-131.000000, -424.000000)" sketch:type="MSArtboardGroup">
		<g transform="translate(45.000000, 67.000000)" sketch:type="MSLayerGroup">
			<g transform="translate(90.000000, 368.000000)" sketch:type="MSShapeGroup">
				<path class="st0" d="M21.4,25.6h-5.5c-9.5,0-17.3,7.7-17.3,17.3V44c0,9.5,7.7,17.3,17.3,17.3h54.9c9.5,0,17.3-7.7,17.3-17.3
					v-1.1c0-9.5-7.7-17.3-17.3-17.3h-7.9C62.7,13.9,53.5,4.5,42.1,4.5S21.6,13.9,21.4,25.6z"/>
				<g transform="translate(45.257143, 0.000000)">
					<path class="st1" d="M-1.3,4.2C2.2-3.1,10.5-8.2,20.1-8.2c12.8,0,23.3,9.1,23.3,20.4c0,6.3-3.2,11.9-8.3,15.6l0,0
						c-2.6-1.6-5.7-2.5-9-2.5h-7.9C17.9,14,9.4,4.9-1.3,4.2z"/>
				</g>
			</g>
		</g>
	</g>
</g>
</svg>
