<?xml version="1.0" encoding="utf-8"?>
<!-- Generator: Adobe Illustrator 19.2.0, SVG Export Plug-In . SVG Version: 6.00 Build 0)  -->
<svg version="1.1" id="Layer_1" xmlns:sketch="http://www.bohemiancoding.com/sketch/ns"
	 xmlns="http://www.w3.org/2000/svg" xmlns:xlink="http://www.w3.org/1999/xlink" x="0px" y="0px" viewBox="0 0 44.2 45.2"
	 style="enable-background:new 0 0 44.2 45.2;" xml:space="preserve">
<style type="text/css">
	.st0{fill:none;stroke:#000000;stroke-width:2.3;}
</style>
<title>Rain</title>
<desc>Created with Sketch.</desc>
<g sketch:type="MSPage">
	<g transform="translate(-2.000000, -2.000000)" sketch:type="MSArtboardGroup">
		<g transform="translate(4.000000, 4.000000)" sketch:type="MSLayerGroup">
			<path sketch:type="MSShapeGroup" class="st0" d="M-0.8,16.9c0,4.6,3.7,8.3,8.3,8.3h7h11.2h7.2c4.6,0,8.3-3.7,8.3-8.3
				c0-4.6-3.7-8.3-8.3-8.3h-3.3c0-5.2-4.2-9.4-9.4-9.4s-9.3,4.2-9.3,9.4H7.5C2.9,8.6-0.8,12.3-0.8,16.9z"/>
			<path sketch:type="MSShapeGroup" d="M8.2,28.2v14c0,0.6,0.4,1,1,1c0.6,0,1-0.4,1-1v-14c0-0.6-0.4-1-1-1
				C8.6,27.2,8.2,27.6,8.2,28.2L8.2,28.2z"/>
			<path sketch:type="MSShapeGroup" d="M14.7,28.2v11c0,0.6,0.4,1,1,1c0.6,0,1-0.4,1-1v-11c0-0.6-0.4-1-1-1
				C15.1,27.2,14.7,27.6,14.7,28.2L14.7,28.2z"/>
			<path sketch:type="MSShapeGroup" d="M21.2,28.2v8c0,0.6,0.4,1,1,1s1-0.4,1-1v-8c0-0.6-0.4-1-1-1S21.2,27.6,21.2,28.2L21.2,28.2z"
				/>
			<path sketch:type="MSShapeGroup" d="M27.7,28.2v5c0,0.6,0.4,1,1,1s1-0.4,1-1v-5c0-0.6-0.4-1-1-1S27.7,27.6,27.7,28.2L27.7,28.2z"
				/>
		</g>
	</g>
</g>
</svg>
