<?xml version="1.0" encoding="utf-8"?>
<!-- Generator: Adobe Illustrator 19.2.0, SVG Export Plug-In . SVG Version: 6.00 Build 0)  -->
<svg version="1.1" id="Layer_1" xmlns:sketch="http://www.bohemiancoding.com/sketch/ns"
	 xmlns="http://www.w3.org/2000/svg" xmlns:xlink="http://www.w3.org/1999/xlink" x="0px" y="0px" viewBox="0 0 43.4 52.7"
	 style="enable-background:new 0 0 43.4 52.7;" xml:space="preserve">
<style type="text/css">
	.st0{fill:none;stroke:#000000;stroke-width:2.2042;}
</style>
<title>Sleet Night</title>
<desc>Created with Sketch.</desc>
<g sketch:type="MSPage">
	<g transform="translate(-5.000000, 0.000000)" sketch:type="MSArtboardGroup">
		<g transform="translate(7.000000, 2.000000)" sketch:type="MSLayerGroup">
			<path sketch:type="MSShapeGroup" class="st0" d="M-0.9,21.3c0,4.4,3.5,8,7.9,8h6.7h10.7h6.8c4.4,0,7.9-3.6,7.9-8s-3.5-8-7.9-8
				h-3.1c0-5-4-9-9-9s-8.9,4-8.9,9H7C2.6,13.3-0.9,16.9-0.9,21.3z"/>
			<g transform="translate(21.930233, 0.000000)" sketch:type="MSShapeGroup">
				<path class="st0" d="M14.6,15.3c1.4-1,2.4-2.4,3-3.9c-0.5,0.1-1,0.1-1.5,0.1c-4.4,0-7.9-4-7.9-8.9c0-1.1,0.2-2.1,0.5-3.1l0,0
					c-0.1,0-0.3,0-0.5,0C4.1-0.5,0.6,1.7-0.9,5"/>
			</g>
			<path sketch:type="MSShapeGroup" d="M21,33v7.7c0,0.5,0.4,1,1,1c0.5,0,1-0.4,1-1V33c0-0.5-0.4-1-1-1C21.4,32.1,21,32.5,21,33
				L21,33z"/>
			<path sketch:type="MSShapeGroup" d="M27.2,33v4.8c0,0.5,0.4,1,1,1c0.5,0,1-0.4,1-1V33c0-0.5-0.4-1-1-1
				C27.6,32.1,27.2,32.5,27.2,33L27.2,33z"/>
			<path sketch:type="MSShapeGroup" d="M17.1,33c0-0.5-0.4-1-1-1c-0.5,0-1,0.4-1,1v12.7c0,0.5,0.4,1,1,1c0.5,0,1-0.4,1-1V33L17.1,33
				z"/>
			<path sketch:type="MSShapeGroup" d="M10.9,33c0-0.5-0.4-1-1-1c-0.5,0-1,0.4-1,1v16.7c0,0.5,0.4,1,1,1c0.5,0,1-0.4,1-1V33L10.9,33
				z"/>
		</g>
	</g>
</g>
</svg>
