<?xml version="1.0" encoding="utf-8"?>
<!-- Generator: Adobe Illustrator 19.2.0, SVG Export Plug-In . SVG Version: 6.00 Build 0)  -->
<svg version="1.1" id="Layer_1" xmlns:sketch="http://www.bohemiancoding.com/sketch/ns"
	 xmlns="http://www.w3.org/2000/svg" xmlns:xlink="http://www.w3.org/1999/xlink" x="0px" y="0px" viewBox="0 0 44.4 46.1"
	 style="enable-background:new 0 0 44.4 46.1;" xml:space="preserve">
<style type="text/css">
	.st0{fill:none;stroke:#000000;stroke-width:2.3;}
</style>
<title>Lightning</title>
<desc>Created with Sketch.</desc>
<g sketch:type="MSPage">
	<g transform="translate(-2.000000, -1.000000)" sketch:type="MSArtboardGroup">
		<g transform="translate(4.000000, 2.000000)" sketch:type="MSLayerGroup">
			<path sketch:type="MSShapeGroup" d="M16.5,28.3L13,37c-0.2,0.5,0,1.1,0.6,1.4c0.5,0.2,1.1,0,1.4-0.6l3.5-8.7
				c0.2-0.5,0-1.1-0.6-1.4C17.3,27.5,16.7,27.7,16.5,28.3L16.5,28.3L16.5,28.3z"/>
			<path sketch:type="MSShapeGroup" d="M14.3,38.3l3.5-1.3c0.5-0.2,0.8-0.8,0.6-1.3c-0.2-0.5-0.8-0.8-1.3-0.6l-3.5,1.3
				c-0.5,0.2-0.8,0.8-0.6,1.3S13.8,38.5,14.3,38.3L14.3,38.3L14.3,38.3z"/>
			<path sketch:type="MSShapeGroup" d="M16.5,35.9L13,43.7c-0.2,0.5,0,1.1,0.5,1.4c0.5,0.2,1.2,0,1.4-0.5l3.5-7.7
				c0.2-0.5,0-1.1-0.5-1.4C17.4,35.2,16.8,35.4,16.5,35.9L16.5,35.9L16.5,35.9z"/>
			<path sketch:type="MSShapeGroup" class="st0" d="M-0.9,17.9c0,4.6,3.7,8.3,8.3,8.3h7h11.2h7.2c4.6,0,8.3-3.7,8.3-8.3
				c0-4.6-3.7-8.3-8.3-8.3h-3.3c0-5.2-4.2-9.4-9.4-9.4s-9.3,4.2-9.3,9.4l-3.4,0C2.8,9.6-0.9,13.4-0.9,17.9z"/>
		</g>
	</g>
</g>
</svg>
