<?xml version="1.0" encoding="utf-8"?>
<!-- Generator: Adobe Illustrator 19.2.0, SVG Export Plug-In . SVG Version: 6.00 Build 0)  -->
<svg version="1.1" id="Layer_1" xmlns:sketch="http://www.bohemiancoding.com/sketch/ns"
	 xmlns="http://www.w3.org/2000/svg" xmlns:xlink="http://www.w3.org/1999/xlink" x="0px" y="0px" viewBox="0 0 45.4 33.2"
	 style="enable-background:new 0 0 45.4 33.2;" xml:space="preserve">
<style type="text/css">
	.st0{fill:none;stroke:#000000;stroke-width:2.3;}
</style>
<title>Partly Cloudy Night</title>
<desc>Created with Sketch.</desc>
<g sketch:type="MSPage">
	<g transform="translate(-2.000000, -8.000000)" sketch:type="MSArtboardGroup">
		<g transform="translate(4.000000, 10.000000)" sketch:type="MSLayerGroup">
			<path sketch:type="MSShapeGroup" class="st0" d="M-0.8,21.9c0,4.6,3.7,8.3,8.3,8.3h7h11.2h7.2c4.6,0,8.3-3.7,8.3-8.3
				c0-4.6-3.7-8.3-8.3-8.3h-3.3c0-5.2-4.2-9.4-9.4-9.4s-9.3,4.2-9.3,9.4l-3.4,0C2.9,13.6-0.8,17.3-0.8,21.9z"/>
			<g transform="translate(23.000000, 0.000000)" sketch:type="MSShapeGroup">
				<path class="st0" d="M15.4,15.6c1.4-1.1,2.5-2.5,3.1-4.1c-0.5,0.1-1,0.2-1.5,0.2c-4.6,0-8.3-4.2-8.3-9.3c0-1.2,0.2-2.3,0.5-3.3
					l0,0c-0.2,0-0.4,0-0.5,0c-4.3,0-8,2.3-9.6,5.7"/>
			</g>
		</g>
	</g>
</g>
</svg>
