<?xml version="1.0" encoding="utf-8"?>
<!-- Generator: Adobe Illustrator 19.2.0, SVG Export Plug-In . SVG Version: 6.00 Build 0)  -->
<svg version="1.1" id="Layer_1" xmlns:sketch="http://www.bohemiancoding.com/sketch/ns"
	 xmlns="http://www.w3.org/2000/svg" xmlns:xlink="http://www.w3.org/1999/xlink" x="0px" y="0px" viewBox="0 0 113.8 72.5"
	 style="enable-background:new 0 0 113.8 72.5;" xml:space="preserve">
<style type="text/css">
	.st0{stroke:#000000;stroke-width:4.7134;}
	.st1{fill:#FFFFFF;stroke:#000000;stroke-width:4.7134;}
</style>
<g sketch:type="MSPage">
	<g transform="translate(45.000000, 67.000000)" sketch:type="MSLayerGroup">
		<g transform="translate(90.000000, 368.000000)" sketch:type="MSShapeGroup">
			<path class="st0" d="M-73.7-416.7h-4.1c-7.2,0-13,5.8-13,13v0.8c0,7.2,5.8,13,13,13h41.2c7.2,0,13-5.8,13-13v-0.8
				c0-7.2-5.8-13-13-13h-6c-0.2-8.8-7.1-15.8-15.6-15.8S-73.6-425.4-73.7-416.7z"/>
		</g>
	</g>
</g>
<title>Partly Cloudy Day</title>
<desc>Created with Sketch.</desc>
<g sketch:type="MSPage">
	<g transform="translate(45.000000, 67.000000)" sketch:type="MSLayerGroup">
		<g transform="translate(90.000000, 368.000000)" sketch:type="MSShapeGroup">
			<path class="st1" d="M-109.7-400.5h-5.5c-9.5,0-17.3,7.7-17.3,17.3v1.1c0,9.5,7.7,17.3,17.3,17.3h54.9c9.5,0,17.3-7.7,17.3-17.3
				v-1.1c0-9.5-7.7-17.3-17.3-17.3h-7.9c-0.2-11.7-9.4-21.1-20.7-21.1S-109.5-412.2-109.7-400.5z"/>
		</g>
	</g>
</g>
</svg>
