<?xml version="1.0" encoding="utf-8"?>
<!-- Generator: Adobe Illustrator 19.2.0, SVG Export Plug-In . SVG Version: 6.00 Build 0)  -->
<svg version="1.1" id="Layer_1" xmlns:sketch="http://www.bohemiancoding.com/sketch/ns"
	 xmlns="http://www.w3.org/2000/svg" xmlns:xlink="http://www.w3.org/1999/xlink" x="0px" y="0px" viewBox="0 0 44.3 52.3"
	 style="enable-background:new 0 0 44.3 52.3;" xml:space="preserve">
<style type="text/css">
	.st0{fill:none;stroke:#000000;stroke-width:2.2042;}
	.st1{fill:none;stroke:#000000;stroke-width:2.1757;}
</style>
<title>Sleet Day</title>
<desc>Created with Sketch.</desc>
<g transform="translate(-3.000000, -1.000000)" sketch:type="MSArtboardGroup">
	<g transform="translate(5.000000, 3.000000)" sketch:type="MSLayerGroup">
		<path sketch:type="MSShapeGroup" class="st0" d="M-0.8,19.8c0,4.4,3.5,8,7.9,8h6.7h10.7h6.8c4.4,0,7.9-3.6,7.9-8
			c0-4.4-3.5-8-7.9-8h-3.2c0-5-4-9-9-9s-8.9,4-8.9,9H7.1C2.7,11.9-0.8,15.4-0.8,19.8z"/>
		<path sketch:type="MSShapeGroup" class="st1" d="M22.2,4.4L22.2,4.4c1.5-3.1,5-5.3,9.2-5.3c5.5,0,9.9,3.9,9.9,8.6
			c0,2.7-1.4,5-3.6,6.6"/>
		<path sketch:type="MSShapeGroup" d="M21.1,32.6v7.7c0,0.5,0.4,1,1,1c0.5,0,1-0.4,1-1v-7.7c0-0.5-0.4-1-1-1
			C21.5,31.7,21.1,32.1,21.1,32.6L21.1,32.6z"/>
		<path sketch:type="MSShapeGroup" d="M27.3,32.6v4.8c0,0.5,0.4,1,1,1c0.5,0,1-0.4,1-1v-4.8c0-0.5-0.4-1-1-1
			C27.7,31.7,27.3,32.1,27.3,32.6L27.3,32.6z"/>
		<path sketch:type="MSShapeGroup" d="M17.2,32.6c0-0.5-0.4-1-1-1c-0.5,0-1,0.4-1,1v12.7c0,0.5,0.4,1,1,1c0.5,0,1-0.4,1-1V32.6
			L17.2,32.6z"/>
		<path sketch:type="MSShapeGroup" d="M11,32.6c0-0.5-0.4-1-1-1c-0.5,0-1,0.4-1,1v16.7c0,0.5,0.4,1,1,1c0.5,0,1-0.4,1-1V32.6
			L11,32.6z"/>
	</g>
</g>
</svg>
