<?xml version="1.0" encoding="utf-8"?>
<!-- Generator: Adobe Illustrator 19.2.0, SVG Export Plug-In . SVG Version: 6.00 Build 0)  -->
<svg version="1.1" id="Layer_1" xmlns:sketch="http://www.bohemiancoding.com/sketch/ns"
	 xmlns="http://www.w3.org/2000/svg" xmlns:xlink="http://www.w3.org/1999/xlink" x="0px" y="0px" viewBox="0 0 43 47.6"
	 style="enable-background:new 0 0 43 47.6;" xml:space="preserve">
<style type="text/css">
	.st0{fill:none;stroke:#000000;stroke-width:2.116;}
	.st1{fill:none;stroke:#000000;stroke-width:1.1678;}
	.st2{fill:none;stroke:#000000;stroke-width:2.1757;}
</style>
<title>Snow Day</title>
<desc>Created with Sketch.</desc>
<g sketch:type="MSPage">
	<g transform="translate(-4.000000, 0.000000)" sketch:type="MSArtboardGroup">
		<g transform="translate(6.000000, 2.000000)" sketch:type="MSLayerGroup">
			<path sketch:type="MSShapeGroup" class="st0" d="M0,20c0,4.2,3.4,7.6,7.5,7.6h6.3h10.2h6.5c4.2,0,7.5-3.4,7.5-7.6
				c0-4.2-3.4-7.6-7.5-7.6h-3c0-4.8-3.8-8.7-8.5-8.7s-8.4,3.9-8.4,8.7H7.5C3.4,12.4,0,15.8,0,20z"/>
			<path sketch:type="MSShapeGroup" class="st1" d="M9.1,32.7c0.5,0,1-0.4,1-1c0-0.5-0.4-1-1-1s-1,0.4-1,1
				C8.2,32.3,8.6,32.7,9.1,32.7z"/>
			<path sketch:type="MSShapeGroup" class="st1" d="M18.2,32.7c0.5,0,1-0.4,1-1c0-0.5-0.4-1-1-1c-0.5,0-1,0.4-1,1
				C17.3,32.3,17.7,32.7,18.2,32.7z"/>
			<path sketch:type="MSShapeGroup" class="st1" d="M27,32.7c0.5,0,1-0.4,1-1c0-0.5-0.4-1-1-1c-0.5,0-1,0.4-1,1
				C26,32.3,26.5,32.7,27,32.7z"/>
			<path sketch:type="MSShapeGroup" class="st1" d="M13.7,39c0.5,0,1-0.4,1-1c0-0.5-0.4-1-1-1s-1,0.4-1,1C12.7,38.6,13.1,39,13.7,39
				z"/>
			<path sketch:type="MSShapeGroup" class="st1" d="M23.2,39c0.5,0,1-0.4,1-1c0-0.5-0.4-1-1-1c-0.5,0-1,0.4-1,1
				C22.2,38.6,22.7,39,23.2,39z"/>
			<path sketch:type="MSShapeGroup" class="st1" d="M9.1,44.9c0.5,0,1-0.4,1-1c0-0.5-0.4-1-1-1s-1,0.4-1,1
				C8.2,44.5,8.6,44.9,9.1,44.9z"/>
			<path sketch:type="MSShapeGroup" class="st1" d="M18.2,44.9c0.5,0,1-0.4,1-1c0-0.5-0.4-1-1-1c-0.5,0-1,0.4-1,1
				C17.3,44.5,17.7,44.9,18.2,44.9z"/>
			<path sketch:type="MSShapeGroup" class="st1" d="M27,44.9c0.5,0,1-0.4,1-1c0-0.5-0.4-1-1-1c-0.5,0-1,0.4-1,1
				C26,44.5,26.5,44.9,27,44.9z"/>
			<path sketch:type="MSShapeGroup" class="st2" d="M20,4.4L20,4.4c1.5-3.1,5-5.3,9.2-5.3c5.5,0,9.9,3.9,9.9,8.6
				c0,2.7-1.4,5-3.6,6.6"/>
		</g>
	</g>
</g>
</svg>
