<?xml version="1.0" encoding="utf-8"?>
<!-- Generator: Adobe Illustrator 19.2.0, SVG Export Plug-In . SVG Version: 6.00 Build 0)  -->
<svg version="1.1" id="Layer_1" xmlns:sketch="http://www.bohemiancoding.com/sketch/ns"
	 xmlns="http://www.w3.org/2000/svg" xmlns:xlink="http://www.w3.org/1999/xlink" x="0px" y="0px" viewBox="0 0 41.4 47.8"
	 style="enable-background:new 0 0 41.4 47.8;" xml:space="preserve">
<style type="text/css">
	.st0{fill:none;stroke:#000000;stroke-width:2.116;}
	.st1{fill:none;stroke:#000000;stroke-width:1.1678;}
</style>
<title>Snow Night</title>
<desc>Created with Sketch.</desc>
<g sketch:type="MSPage">
	<g transform="translate(-4.000000, 0.000000)" sketch:type="MSArtboardGroup">
		<g transform="translate(6.000000, 2.000000)" sketch:type="MSLayerGroup">
			<path sketch:type="MSShapeGroup" class="st0" d="M-0.9,19.9c0,4.2,3.4,7.6,7.5,7.6H13h10.2h6.5c4.2,0,7.5-3.4,7.5-7.6
				c0-4.2-3.4-7.6-7.5-7.6h-3c0-4.8-3.8-8.7-8.5-8.7s-8.4,3.9-8.4,8.7H6.7C2.5,12.3-0.9,15.7-0.9,19.9z"/>
			<path sketch:type="MSShapeGroup" class="st0" d="M34.7,14.2c1.3-1,2.3-2.3,2.8-3.7c-0.5,0.1-0.9,0.1-1.4,0.1
				c-4.1,0-7.5-3.8-7.5-8.5c0-1.1,0.2-2.1,0.5-3l0,0c-0.2,0-0.3,0-0.5,0c-3.9,0-7.3,2.2-8.7,5.2"/>
			<path sketch:type="MSShapeGroup" class="st1" d="M8.2,32.6c0.5,0,1-0.4,1-1c0-0.5-0.4-1-1-1s-1,0.4-1,1
				C7.3,32.2,7.7,32.6,8.2,32.6z"/>
			<path sketch:type="MSShapeGroup" class="st1" d="M17.4,32.6c0.5,0,1-0.4,1-1c0-0.5-0.4-1-1-1c-0.5,0-1,0.4-1,1
				C16.4,32.2,16.8,32.6,17.4,32.6z"/>
			<path sketch:type="MSShapeGroup" class="st1" d="M26.1,32.6c0.5,0,1-0.4,1-1c0-0.5-0.4-1-1-1c-0.5,0-1,0.4-1,1
				C25.2,32.2,25.6,32.6,26.1,32.6z"/>
			<path sketch:type="MSShapeGroup" class="st1" d="M12.8,38.9c0.5,0,1-0.4,1-1c0-0.5-0.4-1-1-1s-1,0.4-1,1
				C11.8,38.5,12.3,38.9,12.8,38.9z"/>
			<path sketch:type="MSShapeGroup" class="st1" d="M22.3,38.9c0.5,0,1-0.4,1-1c0-0.5-0.4-1-1-1c-0.5,0-1,0.4-1,1
				C21.4,38.5,21.8,38.9,22.3,38.9z"/>
			<path sketch:type="MSShapeGroup" class="st1" d="M8.2,44.9c0.5,0,1-0.4,1-1c0-0.5-0.4-1-1-1s-1,0.4-1,1
				C7.3,44.4,7.7,44.9,8.2,44.9z"/>
			<path sketch:type="MSShapeGroup" class="st1" d="M17.4,44.9c0.5,0,1-0.4,1-1c0-0.5-0.4-1-1-1c-0.5,0-1,0.4-1,1
				C16.4,44.4,16.8,44.9,17.4,44.9z"/>
			<path sketch:type="MSShapeGroup" class="st1" d="M26.1,44.9c0.5,0,1-0.4,1-1c0-0.5-0.4-1-1-1c-0.5,0-1,0.4-1,1
				C25.2,44.4,25.6,44.9,26.1,44.9z"/>
		</g>
	</g>
</g>
</svg>
