<?xml version="1.0" encoding="utf-8"?>
<!-- Generator: Adobe Illustrator 19.2.0, SVG Export Plug-In . SVG Version: 6.00 Build 0)  -->
<svg version="1.1" id="Layer_1" xmlns:sketch="http://www.bohemiancoding.com/sketch/ns"
	 xmlns="http://www.w3.org/2000/svg" xmlns:xlink="http://www.w3.org/1999/xlink" x="0px" y="0px" viewBox="0 0 45.4 18.8"
	 style="enable-background:new 0 0 45.4 18.8;" xml:space="preserve">
<title>Fog</title>
<desc>Created with Sketch.</desc>
<g sketch:type="MSPage">
	<g transform="translate(-2.000000, -13.000000)" sketch:type="MSArtboardGroup">
		<g transform="translate(2.000000, 13.000000)" sketch:type="MSLayerGroup">
			<path sketch:type="MSShapeGroup" d="M44,0c0.8,0,1.4,0.6,1.4,1.4l0,0c0,0.8-0.6,1.4-1.4,1.4H1.4C0.6,2.8,0,2.2,0,1.4l0,0
				C0,0.6,0.6,0,1.4,0H44L44,0z"/>
			<path sketch:type="MSShapeGroup" d="M44,8c0.8,0,1.4,0.6,1.4,1.4l0,0c0,0.8-0.6,1.4-1.4,1.4H1.4C0.6,10.8,0,10.2,0,9.4l0,0
				C0,8.6,0.6,8,1.4,8H44L44,8z"/>
			<path sketch:type="MSShapeGroup" d="M44,16c0.8,0,1.4,0.6,1.4,1.4l0,0c0,0.8-0.6,1.4-1.4,1.4H1.4c-0.8,0-1.4-0.6-1.4-1.4l0,0
				C0,16.6,0.6,16,1.4,16H44L44,16z"/>
		</g>
	</g>
</g>
</svg>
