<?xml version="1.0" encoding="utf-8"?>
<!-- Generator: Adobe Illustrator 19.2.0, SVG Export Plug-In . SVG Version: 6.00 Build 0)  -->
<svg version="1.1" id="Layer_1" xmlns="http://www.w3.org/2000/svg" xmlns:xlink="http://www.w3.org/1999/xlink" x="0px" y="0px"
	 viewBox="0 0 292.4 31.2" style="enable-background:new 0 0 292.4 31.2;" xml:space="preserve">
<style type="text/css">
	.st0{fill:#010101;}
</style>
<g>
	<g>
		<path d="M80.9,14.9l-3.7,16.3h-9.1L59.9,2.5h9.7L73.3,20l4.3-17.6h6.5L88.5,20l3.7-17.6h9.8l-8.2,28.7h-9.1L80.9,14.9z"/>
		<path d="M108.1,2.5h21.8v7.6h-13.1v2.8h12.8v7.6h-12.8v3.1h13.1v7.6h-21.8V2.5z"/>
		<path d="M156.1,27.8h-10.3l-1,3.4h-9.9l10.6-28.7h10.9L167,31.2h-9.9L156.1,27.8z M148.1,20.3h5.7L151,11L148.1,20.3z"/>
		<path d="M176.4,10.1h-7.7V2.5h24v7.6h-7.7v21.1h-8.7V10.1z"/>
		<path d="M219.1,20.2h-10.3v11h-8.7V2.5h8.7v10.2h10.3V2.5h8.7v28.7h-8.7V20.2z"/>
		<path d="M236.8,2.5h21.8v7.6h-13.1v2.8h12.8v7.6h-12.8v3.1h13.1v7.6h-21.8V2.5z"/>
		<path d="M278.5,22.2h-3.1v9h-8.7V2.5H282c6.7,0,10.3,4.5,10.3,9.9c0,4.9-2.9,7.6-5.2,8.7l5.2,10.2h-9.9L278.5,22.2z M280.7,10.1
			h-5.3v4.5h5.3c1.5,0,2.8-0.7,2.8-2.3C283.5,10.8,282.2,10.1,280.7,10.1z"/>
	</g>
</g>
<g sketch:type="MSPage">
	<g transform="translate(-560.000000, -237.000000)" sketch:type="MSArtboardGroup">
		<g transform="translate(45.000000, 67.000000)" sketch:type="MSLayerGroup">
			<g transform="translate(520.000000, 186.000000)" sketch:type="MSShapeGroup">
				<g>
					<path class="st0" d="M32.5,16h-27C-0.3,16-5,11.2-5,5.5V4.8C-5-1-0.3-5.7,5.5-5.7h0.8C7.4-11.5,12.4-16,18.4-16
						c6,0,11,4.5,12.1,10.3h2.1C38.3-5.7,43-1,43,4.8v0.6C43,11.2,38.3,16,32.5,16z M5.5-1.5C2-1.5-0.8,1.3-0.8,4.8v0.6
						c0,3.5,2.8,6.3,6.3,6.3h27c3.5,0,6.3-2.8,6.3-6.3V4.8c0-3.5-2.8-6.3-6.3-6.3h-6l0-2.1c-0.1-4.6-3.7-8.3-8.1-8.3
						c-4.4,0-8,3.7-8.1,8.3l0,2.1H5.5z"/>
				</g>
			</g>
		</g>
	</g>
</g>
</svg>
